<?xml version="1.0" encoding="UTF-8" standalone="no"?>
<!DOCTYPE svg PUBLIC "-//W3C//DTD SVG 1.1//EN"
 "http://www.w3.org/Graphics/SVG/1.1/DTD/svg11.dtd">
<!-- Generated by graphviz version 12.2.1 (20241206.2353)
 -->
<!-- Title: G Pages: 1 -->
<svg width="1640pt" height="938pt"
 viewBox="0.00 0.00 1639.75 937.97" xmlns="http://www.w3.org/2000/svg" xmlns:xlink="http://www.w3.org/1999/xlink">
<g id="graph0" class="graph" transform="scale(1 1) rotate(0) translate(4 933.97)">
<title>G</title>
<polygon fill="white" stroke="none" points="-4,4 -4,-933.97 1635.75,-933.97 1635.75,4 -4,4"/>
<g id="clust1" class="cluster">
<title>cluster_module.alb</title>
<polygon fill="none" stroke="black" points="1337.88,-194.97 1337.88,-431.97 1550.62,-431.97 1550.62,-194.97 1337.88,-194.97"/>
<text text-anchor="middle" x="1444.25" y="-414.67" font-family="sans-serif" font-size="14.00">module.alb</text>
</g>
<g id="clust2" class="cluster">
<title>cluster_module.asg</title>
<polygon fill="none" stroke="black" points="1264.75,-439.97 1264.75,-784.97 1623.75,-784.97 1623.75,-439.97 1264.75,-439.97"/>
<text text-anchor="middle" x="1444.25" y="-767.67" font-family="sans-serif" font-size="14.00">module.asg</text>
</g>
<g id="clust3" class="cluster">
<title>cluster_module.bastion</title>
<polygon fill="none" stroke="black" points="1344.62,-792.97 1344.62,-921.97 1543.88,-921.97 1543.88,-792.97 1344.62,-792.97"/>
<text text-anchor="middle" x="1444.25" y="-904.67" font-family="sans-serif" font-size="14.00">module.bastion</text>
</g>
<g id="clust4" class="cluster">
<title>cluster_module.ecr</title>
<polygon fill="none" stroke="black" points="495.62,-508.97 495.62,-583.97 670.12,-583.97 670.12,-508.97 495.62,-508.97"/>
<text text-anchor="middle" x="582.88" y="-566.67" font-family="sans-serif" font-size="14.00">module.ecr</text>
</g>
<g id="clust5" class="cluster">
<title>cluster_module.monitoring</title>
<polygon fill="none" stroke="black" points="151.5,-425.97 151.5,-500.97 673.5,-500.97 673.5,-425.97 151.5,-425.97"/>
<text text-anchor="middle" x="412.5" y="-483.67" font-family="sans-serif" font-size="14.00">module.monitoring</text>
</g>
<g id="clust6" class="cluster">
<title>cluster_module.nat</title>
<polygon fill="none" stroke="black" points="530.88,-57.97 530.88,-186.97 1576.88,-186.97 1576.88,-57.97 530.88,-57.97"/>
<text text-anchor="middle" x="1053.88" y="-169.67" font-family="sans-serif" font-size="14.00">module.nat</text>
</g>
<g id="clust7" class="cluster">
<title>cluster_module.vpc</title>
<polygon fill="none" stroke="black" points="8,-194.97 8,-417.97 1049.5,-417.97 1049.5,-194.97 8,-194.97"/>
<text text-anchor="middle" x="528.75" y="-400.67" font-family="sans-serif" font-size="14.00">module.vpc</text>
</g>
<!-- aws_iam_instance_profile.backend_ec2_profile -->
<g id="node1" class="node">
<title>aws_iam_instance_profile.backend_ec2_profile</title>
<polygon fill="none" stroke="black" points="733,-735.97 432.75,-735.97 432.75,-699.97 733,-699.97 733,-735.97"/>
<text text-anchor="middle" x="582.88" y="-712.17" font-family="sans-serif" font-size="14.00">aws_iam_instance_profile.backend_ec2_profile</text>
</g>
<!-- aws_iam_role.backend_ec2_role -->
<g id="node2" class="node">
<title>aws_iam_role.backend_ec2_role</title>
<polygon fill="none" stroke="black" points="368.25,-708.97 154.25,-708.97 154.25,-672.97 368.25,-672.97 368.25,-708.97"/>
<text text-anchor="middle" x="261.25" y="-685.17" font-family="sans-serif" font-size="14.00">aws_iam_role.backend_ec2_role</text>
</g>
<!-- aws_iam_instance_profile.backend_ec2_profile&#45;&gt;aws_iam_role.backend_ec2_role -->
<g id="edge1" class="edge">
<title>aws_iam_instance_profile.backend_ec2_profile&#45;&gt;aws_iam_role.backend_ec2_role</title>
<path fill="none" stroke="black" d="M432.36,-705.34C414.63,-703.84 396.74,-702.33 379.55,-700.88"/>
<polygon fill="black" stroke="black" points="380.13,-697.41 369.87,-700.06 379.54,-704.39 380.13,-697.41"/>
</g>
<!-- aws_iam_role_policy_attachment.backend_ecr_readonly -->
<g id="node3" class="node">
<title>aws_iam_role_policy_attachment.backend_ecr_readonly</title>
<polygon fill="none" stroke="black" points="761.5,-681.97 404.25,-681.97 404.25,-645.97 761.5,-645.97 761.5,-681.97"/>
<text text-anchor="middle" x="582.88" y="-658.17" font-family="sans-serif" font-size="14.00">aws_iam_role_policy_attachment.backend_ecr_readonly</text>
</g>
<!-- aws_iam_role_policy_attachment.backend_ecr_readonly&#45;&gt;aws_iam_role.backend_ec2_role -->
<g id="edge2" class="edge">
<title>aws_iam_role_policy_attachment.backend_ecr_readonly&#45;&gt;aws_iam_role.backend_ec2_role</title>
<path fill="none" stroke="black" d="M403.84,-679.01C395.75,-679.69 387.72,-680.37 379.84,-681.03"/>
<polygon fill="black" stroke="black" points="379.59,-677.54 369.92,-681.87 380.18,-684.52 379.59,-677.54"/>
</g>
<!-- aws_instance.backend -->
<g id="node4" class="node">
<title>aws_instance.backend</title>
<polygon fill="none" stroke="black" points="995.75,-510.97 843.25,-510.97 843.25,-474.97 995.75,-474.97 995.75,-510.97"/>
<text text-anchor="middle" x="919.5" y="-487.17" font-family="sans-serif" font-size="14.00">aws_instance.backend</text>
</g>
<!-- aws_instance.backend&#45;&gt;aws_iam_instance_profile.backend_ec2_profile -->
<g id="edge3" class="edge">
<title>aws_instance.backend&#45;&gt;aws_iam_instance_profile.backend_ec2_profile</title>
<path fill="none" stroke="black" d="M910,-511.23C890.26,-551.34 837.21,-647.05 761.5,-690.97 755.8,-694.28 749.82,-697.22 743.66,-699.84"/>
<polygon fill="black" stroke="black" points="742.59,-696.51 734.55,-703.4 745.14,-703.03 742.59,-696.51"/>
</g>
<!-- aws_security_group.backend -->
<g id="node5" class="node">
<title>aws_security_group.backend</title>
<polygon fill="none" stroke="black" points="678.25,-627.97 487.5,-627.97 487.5,-591.97 678.25,-591.97 678.25,-627.97"/>
<text text-anchor="middle" x="582.88" y="-604.17" font-family="sans-serif" font-size="14.00">aws_security_group.backend</text>
</g>
<!-- aws_instance.backend&#45;&gt;aws_security_group.backend -->
<g id="edge4" class="edge">
<title>aws_instance.backend&#45;&gt;aws_security_group.backend</title>
<path fill="none" stroke="black" d="M895.35,-511.34C866.04,-533.52 813.12,-570.07 761.5,-587.97 738.94,-595.79 713.93,-600.89 689.96,-604.21"/>
<polygon fill="black" stroke="black" points="689.64,-600.73 680.16,-605.47 690.53,-607.67 689.64,-600.73"/>
</g>
<!-- module.ecr.aws_ecr_repository.app -->
<g id="node18" class="node">
<title>module.ecr.aws_ecr_repository.app</title>
<polygon fill="none" stroke="black" points="662.12,-552.97 503.62,-552.97 503.62,-516.97 662.12,-516.97 662.12,-552.97"/>
<text text-anchor="middle" x="582.88" y="-529.17" font-family="sans-serif" font-size="14.00">aws_ecr_repository.app</text>
</g>
<!-- aws_instance.backend&#45;&gt;module.ecr.aws_ecr_repository.app -->
<g id="edge5" class="edge">
<title>aws_instance.backend&#45;&gt;module.ecr.aws_ecr_repository.app</title>
<path fill="none" stroke="black" d="M842.99,-502.44C792.88,-508.73 726.87,-517.02 674.02,-523.65"/>
<polygon fill="black" stroke="black" points="673.59,-520.18 664.11,-524.9 674.46,-527.12 673.59,-520.18"/>
</g>
<!-- module.monitoring.aws_instance.monitoring -->
<g id="node19" class="node">
<title>module.monitoring.aws_instance.monitoring</title>
<polygon fill="none" stroke="black" points="665.5,-469.97 500.25,-469.97 500.25,-433.97 665.5,-433.97 665.5,-469.97"/>
<text text-anchor="middle" x="582.88" y="-446.17" font-family="sans-serif" font-size="14.00">aws_instance.monitoring</text>
</g>
<!-- aws_instance.backend&#45;&gt;module.monitoring.aws_instance.monitoring -->
<g id="edge6" class="edge">
<title>aws_instance.backend&#45;&gt;module.monitoring.aws_instance.monitoring</title>
<path fill="none" stroke="black" d="M842.99,-483.71C793.87,-477.7 729.47,-469.81 677.16,-463.4"/>
<polygon fill="black" stroke="black" points="677.7,-459.94 667.35,-462.19 676.85,-466.88 677.7,-459.94"/>
</g>
<!-- module.vpc.aws_subnet.public_a -->
<g id="node32" class="node">
<title>module.vpc.aws_subnet.public_a</title>
<polygon fill="none" stroke="black" points="653.88,-386.97 511.88,-386.97 511.88,-350.97 653.88,-350.97 653.88,-386.97"/>
<text text-anchor="middle" x="582.88" y="-363.17" font-family="sans-serif" font-size="14.00">aws_subnet.public_a</text>
</g>
<!-- aws_instance.backend&#45;&gt;module.vpc.aws_subnet.public_a -->
<g id="edge7" class="edge">
<title>aws_instance.backend&#45;&gt;module.vpc.aws_subnet.public_a</title>
<path fill="none" stroke="black" d="M881.66,-474.6C850.21,-459.34 803.54,-437.66 761.5,-421.97 730.08,-410.24 694.81,-399.27 664.02,-390.4"/>
<polygon fill="black" stroke="black" points="665.37,-387.14 654.79,-387.76 663.45,-393.87 665.37,-387.14"/>
</g>
<!-- module.vpc.aws_subnet.public_c -->
<g id="node33" class="node">
<title>module.vpc.aws_subnet.public_c</title>
<polygon fill="none" stroke="black" points="653.5,-278.97 512.25,-278.97 512.25,-242.97 653.5,-242.97 653.5,-278.97"/>
<text text-anchor="middle" x="582.88" y="-255.17" font-family="sans-serif" font-size="14.00">aws_subnet.public_c</text>
</g>
<!-- aws_instance.backend&#45;&gt;module.vpc.aws_subnet.public_c -->
<g id="edge8" class="edge">
<title>aws_instance.backend&#45;&gt;module.vpc.aws_subnet.public_c</title>
<path fill="none" stroke="black" d="M868.86,-474.54C844.07,-462.97 815.59,-445.7 797.5,-421.97 760.12,-372.92 807.47,-329.07 761.5,-287.97 735.6,-264.8 698.6,-256.69 665.07,-254.91"/>
<polygon fill="black" stroke="black" points="665.48,-251.42 655.37,-254.59 665.24,-258.42 665.48,-251.42"/>
</g>
<!-- module.vpc.aws_vpc.main -->
<g id="node34" class="node">
<title>module.vpc.aws_vpc.main</title>
<polygon fill="none" stroke="black" points="118.25,-366.97 16,-366.97 16,-330.97 118.25,-330.97 118.25,-366.97"/>
<text text-anchor="middle" x="67.12" y="-343.17" font-family="sans-serif" font-size="14.00">aws_vpc.main</text>
</g>
<!-- aws_security_group.backend&#45;&gt;module.vpc.aws_vpc.main -->
<g id="edge9" class="edge">
<title>aws_security_group.backend&#45;&gt;module.vpc.aws_vpc.main</title>
<path fill="none" stroke="black" d="M487.23,-610.22C392.09,-605.6 246.32,-584.61 151.5,-504.97 111.36,-471.25 87.68,-413.14 76.36,-378.15"/>
<polygon fill="black" stroke="black" points="79.73,-377.21 73.43,-368.69 73.04,-379.28 79.73,-377.21"/>
</g>
<!-- module.alb.aws_lb.main -->
<g id="node6" class="node">
<title>module.alb.aws_lb.main</title>
<polygon fill="none" stroke="black" points="1490.12,-238.97 1398.38,-238.97 1398.38,-202.97 1490.12,-202.97 1490.12,-238.97"/>
<text text-anchor="middle" x="1444.25" y="-215.17" font-family="sans-serif" font-size="14.00">aws_lb.main</text>
</g>
<!-- module.alb.aws_lb_listener.http -->
<g id="node7" class="node">
<title>module.alb.aws_lb_listener.http</title>
<polygon fill="none" stroke="black" points="1511.88,-292.97 1376.62,-292.97 1376.62,-256.97 1511.88,-256.97 1511.88,-292.97"/>
<text text-anchor="middle" x="1444.25" y="-269.17" font-family="sans-serif" font-size="14.00">aws_lb_listener.http</text>
</g>
<!-- module.alb.aws_lb_target_group.backend -->
<g id="node8" class="node">
<title>module.alb.aws_lb_target_group.backend</title>
<polygon fill="none" stroke="black" points="1542.62,-346.97 1345.88,-346.97 1345.88,-310.97 1542.62,-310.97 1542.62,-346.97"/>
<text text-anchor="middle" x="1444.25" y="-323.17" font-family="sans-serif" font-size="14.00">aws_lb_target_group.backend</text>
</g>
<!-- module.alb.aws_security_group.alb -->
<g id="node9" class="node">
<title>module.alb.aws_security_group.alb</title>
<polygon fill="none" stroke="black" points="1523.12,-400.97 1365.38,-400.97 1365.38,-364.97 1523.12,-364.97 1523.12,-400.97"/>
<text text-anchor="middle" x="1444.25" y="-377.17" font-family="sans-serif" font-size="14.00">aws_security_group.alb</text>
</g>
<!-- module.asg.aws_autoscaling_group.backend -->
<g id="node10" class="node">
<title>module.asg.aws_autoscaling_group.backend</title>
<polygon fill="none" stroke="black" points="1550.5,-483.97 1338,-483.97 1338,-447.97 1550.5,-447.97 1550.5,-483.97"/>
<text text-anchor="middle" x="1444.25" y="-460.17" font-family="sans-serif" font-size="14.00">aws_autoscaling_group.backend</text>
</g>
<!-- module.asg.aws_iam_instance_profile.ec2_profile -->
<g id="node11" class="node">
<title>module.asg.aws_iam_instance_profile.ec2_profile</title>
<polygon fill="none" stroke="black" points="1565.12,-537.97 1323.38,-537.97 1323.38,-501.97 1565.12,-501.97 1565.12,-537.97"/>
<text text-anchor="middle" x="1444.25" y="-514.17" font-family="sans-serif" font-size="14.00">aws_iam_instance_profile.ec2_profile</text>
</g>
<!-- module.asg.aws_iam_role.ec2_role -->
<g id="node12" class="node">
<title>module.asg.aws_iam_role.ec2_role</title>
<polygon fill="none" stroke="black" points="1522,-591.97 1366.5,-591.97 1366.5,-555.97 1522,-555.97 1522,-591.97"/>
<text text-anchor="middle" x="1444.25" y="-568.17" font-family="sans-serif" font-size="14.00">aws_iam_role.ec2_role</text>
</g>
<!-- module.asg.aws_iam_role_policy_attachment.ecr_readonly_attach -->
<g id="node13" class="node">
<title>module.asg.aws_iam_role_policy_attachment.ecr_readonly_attach</title>
<polygon fill="none" stroke="black" points="1615.75,-645.97 1272.75,-645.97 1272.75,-609.97 1615.75,-609.97 1615.75,-645.97"/>
<text text-anchor="middle" x="1444.25" y="-622.17" font-family="sans-serif" font-size="14.00">aws_iam_role_policy_attachment.ecr_readonly_attach</text>
</g>
<!-- module.asg.aws_launch_template.backend -->
<g id="node14" class="node">
<title>module.asg.aws_launch_template.backend</title>
<polygon fill="none" stroke="black" points="1545.25,-699.97 1343.25,-699.97 1343.25,-663.97 1545.25,-663.97 1545.25,-699.97"/>
<text text-anchor="middle" x="1444.25" y="-676.17" font-family="sans-serif" font-size="14.00">aws_launch_template.backend</text>
</g>
<!-- module.asg.aws_security_group.backend -->
<g id="node15" class="node">
<title>module.asg.aws_security_group.backend</title>
<polygon fill="none" stroke="black" points="1539.62,-753.97 1348.88,-753.97 1348.88,-717.97 1539.62,-717.97 1539.62,-753.97"/>
<text text-anchor="middle" x="1444.25" y="-730.17" font-family="sans-serif" font-size="14.00">aws_security_group.backend</text>
</g>
<!-- module.bastion.aws_instance.bastion -->
<g id="node16" class="node">
<title>module.bastion.aws_instance.bastion</title>
<polygon fill="none" stroke="black" points="1516.75,-836.97 1371.75,-836.97 1371.75,-800.97 1516.75,-800.97 1516.75,-836.97"/>
<text text-anchor="middle" x="1444.25" y="-813.17" font-family="sans-serif" font-size="14.00">aws_instance.bastion</text>
</g>
<!-- module.bastion.aws_security_group.bastion -->
<g id="node17" class="node">
<title>module.bastion.aws_security_group.bastion</title>
<polygon fill="none" stroke="black" points="1535.88,-890.97 1352.62,-890.97 1352.62,-854.97 1535.88,-854.97 1535.88,-890.97"/>
<text text-anchor="middle" x="1444.25" y="-867.17" font-family="sans-serif" font-size="14.00">aws_security_group.bastion</text>
</g>
<!-- module.monitoring.aws_security_group.monitoring -->
<g id="node20" class="node">
<title>module.monitoring.aws_security_group.monitoring</title>
<polygon fill="none" stroke="black" points="363,-469.97 159.5,-469.97 159.5,-433.97 363,-433.97 363,-469.97"/>
<text text-anchor="middle" x="261.25" y="-446.17" font-family="sans-serif" font-size="14.00">aws_security_group.monitoring</text>
</g>
<!-- module.monitoring.aws_instance.monitoring&#45;&gt;module.monitoring.aws_security_group.monitoring -->
<g id="edge10" class="edge">
<title>module.monitoring.aws_instance.monitoring&#45;&gt;module.monitoring.aws_security_group.monitoring</title>
<path fill="none" stroke="black" d="M499.98,-451.97C461.94,-451.97 416.1,-451.97 374.87,-451.97"/>
<polygon fill="black" stroke="black" points="374.88,-448.47 364.88,-451.97 374.88,-455.47 374.88,-448.47"/>
</g>
<!-- module.vpc.aws_subnet.private_c -->
<g id="node31" class="node">
<title>module.vpc.aws_subnet.private_c</title>
<polygon fill="none" stroke="black" points="334.5,-292.97 188,-292.97 188,-256.97 334.5,-256.97 334.5,-292.97"/>
<text text-anchor="middle" x="261.25" y="-269.17" font-family="sans-serif" font-size="14.00">aws_subnet.private_c</text>
</g>
<!-- module.monitoring.aws_instance.monitoring&#45;&gt;module.vpc.aws_subnet.private_c -->
<g id="edge11" class="edge">
<title>module.monitoring.aws_instance.monitoring&#45;&gt;module.vpc.aws_subnet.private_c</title>
<path fill="none" stroke="black" d="M499.76,-455.32C466.82,-452.59 430.52,-443.93 404.25,-421.97 368.01,-391.67 400.43,-356.55 368.25,-321.97 359.25,-312.3 347.9,-304.49 335.99,-298.24"/>
<polygon fill="black" stroke="black" points="337.79,-295.22 327.26,-294 334.73,-301.52 337.79,-295.22"/>
</g>
<!-- module.monitoring.aws_security_group.monitoring&#45;&gt;module.vpc.aws_vpc.main -->
<g id="edge12" class="edge">
<title>module.monitoring.aws_security_group.monitoring&#45;&gt;module.vpc.aws_vpc.main</title>
<path fill="none" stroke="black" d="M177.93,-433.57C168.77,-430.27 159.78,-426.43 151.5,-421.97 129.21,-409.96 107.8,-391 92.26,-375.41"/>
<polygon fill="black" stroke="black" points="94.79,-372.99 85.31,-368.25 89.76,-377.87 94.79,-372.99"/>
</g>
<!-- module.nat.aws_eip.nat -->
<g id="node21" class="node">
<title>module.nat.aws_eip.nat</title>
<polygon fill="none" stroke="black" points="626.88,-155.97 538.88,-155.97 538.88,-119.97 626.88,-119.97 626.88,-155.97"/>
<text text-anchor="middle" x="582.88" y="-132.17" font-family="sans-serif" font-size="14.00">aws_eip.nat</text>
</g>
<!-- module.nat.aws_nat_gateway.main -->
<g id="node22" class="node">
<title>module.nat.aws_nat_gateway.main</title>
<polygon fill="none" stroke="black" points="998,-155.97 841,-155.97 841,-119.97 998,-119.97 998,-155.97"/>
<text text-anchor="middle" x="919.5" y="-132.17" font-family="sans-serif" font-size="14.00">aws_nat_gateway.main</text>
</g>
<!-- module.nat.aws_nat_gateway.main&#45;&gt;module.nat.aws_eip.nat -->
<g id="edge13" class="edge">
<title>module.nat.aws_nat_gateway.main&#45;&gt;module.nat.aws_eip.nat</title>
<path fill="none" stroke="black" d="M840.89,-137.97C778.88,-137.97 693.54,-137.97 638.54,-137.97"/>
<polygon fill="black" stroke="black" points="638.79,-134.47 628.79,-137.97 638.79,-141.47 638.79,-134.47"/>
</g>
<!-- module.nat.aws_nat_gateway.main&#45;&gt;module.vpc.aws_subnet.public_a -->
<g id="edge14" class="edge">
<title>module.nat.aws_nat_gateway.main&#45;&gt;module.vpc.aws_subnet.public_a</title>
<path fill="none" stroke="black" d="M847.6,-156.34C828.99,-164.25 810.51,-175.39 797.5,-190.97 753.27,-243.91 812.27,-295.25 761.5,-341.97 735.93,-365.5 698.97,-373.66 665.39,-375.37"/>
<polygon fill="black" stroke="black" points="665.55,-371.87 655.66,-375.68 665.76,-378.86 665.55,-371.87"/>
</g>
<!-- module.nat.aws_nat_gateway.main&#45;&gt;module.vpc.aws_subnet.public_c -->
<g id="edge15" class="edge">
<title>module.nat.aws_nat_gateway.main&#45;&gt;module.vpc.aws_subnet.public_c</title>
<path fill="none" stroke="black" d="M868.4,-156.38C808.68,-178.33 708.92,-215 644.8,-238.57"/>
<polygon fill="black" stroke="black" points="643.64,-235.27 635.46,-242 646.05,-241.84 643.64,-235.27"/>
</g>
<!-- module.nat.aws_route_table.private -->
<g id="node23" class="node">
<title>module.nat.aws_route_table.private</title>
<polygon fill="none" stroke="black" points="1236.75,-155.97 1077.5,-155.97 1077.5,-119.97 1236.75,-119.97 1236.75,-155.97"/>
<text text-anchor="middle" x="1157.12" y="-132.17" font-family="sans-serif" font-size="14.00">aws_route_table.private</text>
</g>
<!-- module.nat.aws_route_table.private&#45;&gt;module.nat.aws_nat_gateway.main -->
<g id="edge16" class="edge">
<title>module.nat.aws_route_table.private&#45;&gt;module.nat.aws_nat_gateway.main</title>
<path fill="none" stroke="black" d="M1077.01,-137.97C1055.38,-137.97 1031.79,-137.97 1009.64,-137.97"/>
<polygon fill="black" stroke="black" points="1009.72,-134.47 999.72,-137.97 1009.72,-141.47 1009.72,-134.47"/>
</g>
<!-- module.nat.aws_route_table_association.private_a -->
<g id="node24" class="node">
<title>module.nat.aws_route_table_association.private_a</title>
<polygon fill="none" stroke="black" points="1568.88,-101.97 1319.62,-101.97 1319.62,-65.97 1568.88,-65.97 1568.88,-101.97"/>
<text text-anchor="middle" x="1444.25" y="-78.17" font-family="sans-serif" font-size="14.00">aws_route_table_association.private_a</text>
</g>
<!-- module.nat.aws_route_table_association.private_a&#45;&gt;module.nat.aws_route_table.private -->
<g id="edge17" class="edge">
<title>module.nat.aws_route_table_association.private_a&#45;&gt;module.nat.aws_route_table.private</title>
<path fill="none" stroke="black" d="M1319.58,-101.06C1301.15,-104.08 1282.42,-107.4 1264.75,-110.97 1256.03,-112.73 1246.96,-114.74 1237.95,-116.85"/>
<polygon fill="black" stroke="black" points="1237.39,-113.39 1228.49,-119.12 1239.03,-120.19 1237.39,-113.39"/>
</g>
<!-- module.vpc.aws_subnet.private_a -->
<g id="node30" class="node">
<title>module.vpc.aws_subnet.private_a</title>
<polygon fill="none" stroke="black" points="334.88,-238.97 187.62,-238.97 187.62,-202.97 334.88,-202.97 334.88,-238.97"/>
<text text-anchor="middle" x="261.25" y="-215.17" font-family="sans-serif" font-size="14.00">aws_subnet.private_a</text>
</g>
<!-- module.nat.aws_route_table_association.private_a&#45;&gt;module.vpc.aws_subnet.private_a -->
<g id="edge18" class="edge">
<title>module.nat.aws_route_table_association.private_a&#45;&gt;module.vpc.aws_subnet.private_a</title>
<path fill="none" stroke="black" d="M1372.84,-65.51C1199.79,-23.9 743.14,63.1 404.25,-77.97 348.25,-101.28 302.97,-158.61 279.57,-193.18"/>
<polygon fill="black" stroke="black" points="276.71,-191.16 274.13,-201.44 282.56,-195.02 276.71,-191.16"/>
</g>
<!-- module.nat.aws_route_table_association.private_c -->
<g id="node25" class="node">
<title>module.nat.aws_route_table_association.private_c</title>
<polygon fill="none" stroke="black" points="1568.5,-155.97 1320,-155.97 1320,-119.97 1568.5,-119.97 1568.5,-155.97"/>
<text text-anchor="middle" x="1444.25" y="-132.17" font-family="sans-serif" font-size="14.00">aws_route_table_association.private_c</text>
</g>
<!-- module.nat.aws_route_table_association.private_c&#45;&gt;module.nat.aws_route_table.private -->
<g id="edge19" class="edge">
<title>module.nat.aws_route_table_association.private_c&#45;&gt;module.nat.aws_route_table.private</title>
<path fill="none" stroke="black" d="M1319.85,-137.97C1295.77,-137.97 1270.95,-137.97 1248.21,-137.97"/>
<polygon fill="black" stroke="black" points="1248.38,-134.47 1238.38,-137.97 1248.38,-141.47 1248.38,-134.47"/>
</g>
<!-- module.nat.aws_route_table_association.private_c&#45;&gt;module.vpc.aws_subnet.private_c -->
<g id="edge20" class="edge">
<title>module.nat.aws_route_table_association.private_c&#45;&gt;module.vpc.aws_subnet.private_c</title>
<path fill="none" stroke="black" d="M1322.3,-119.48C1294.28,-115.94 1264.53,-112.78 1236.75,-110.97 1052.14,-98.95 550.75,2.01 404.25,-110.97 354.4,-149.41 412.93,-203.62 368.25,-247.97 361.73,-254.43 353.9,-259.42 345.47,-263.26"/>
<polygon fill="black" stroke="black" points="344.39,-259.92 336.37,-266.83 346.95,-266.44 344.39,-259.92"/>
</g>
<!-- module.vpc.aws_internet_gateway.main -->
<g id="node26" class="node">
<title>module.vpc.aws_internet_gateway.main</title>
<polygon fill="none" stroke="black" points="352.88,-366.97 169.62,-366.97 169.62,-330.97 352.88,-330.97 352.88,-366.97"/>
<text text-anchor="middle" x="261.25" y="-343.17" font-family="sans-serif" font-size="14.00">aws_internet_gateway.main</text>
</g>
<!-- module.vpc.aws_internet_gateway.main&#45;&gt;module.vpc.aws_vpc.main -->
<g id="edge21" class="edge">
<title>module.vpc.aws_internet_gateway.main&#45;&gt;module.vpc.aws_vpc.main</title>
<path fill="none" stroke="black" d="M169.25,-348.97C155.88,-348.97 142.39,-348.97 129.8,-348.97"/>
<polygon fill="black" stroke="black" points="130.03,-345.47 120.03,-348.97 130.03,-352.47 130.03,-345.47"/>
</g>
<!-- module.vpc.aws_route_table.public -->
<g id="node27" class="node">
<title>module.vpc.aws_route_table.public</title>
<polygon fill="none" stroke="black" points="659.88,-332.97 505.88,-332.97 505.88,-296.97 659.88,-296.97 659.88,-332.97"/>
<text text-anchor="middle" x="582.88" y="-309.17" font-family="sans-serif" font-size="14.00">aws_route_table.public</text>
</g>
<!-- module.vpc.aws_route_table.public&#45;&gt;module.vpc.aws_internet_gateway.main -->
<g id="edge22" class="edge">
<title>module.vpc.aws_route_table.public&#45;&gt;module.vpc.aws_internet_gateway.main</title>
<path fill="none" stroke="black" d="M505.72,-323.07C463.42,-327.57 410.22,-333.23 364.35,-338.11"/>
<polygon fill="black" stroke="black" points="364.25,-334.6 354.67,-339.14 364.99,-341.56 364.25,-334.6"/>
</g>
<!-- module.vpc.aws_route_table_association.public_a -->
<g id="node28" class="node">
<title>module.vpc.aws_route_table_association.public_a</title>
<polygon fill="none" stroke="black" points="1041.5,-372.97 797.5,-372.97 797.5,-336.97 1041.5,-336.97 1041.5,-372.97"/>
<text text-anchor="middle" x="919.5" y="-349.17" font-family="sans-serif" font-size="14.00">aws_route_table_association.public_a</text>
</g>
<!-- module.vpc.aws_route_table_association.public_a&#45;&gt;module.vpc.aws_route_table.public -->
<g id="edge23" class="edge">
<title>module.vpc.aws_route_table_association.public_a&#45;&gt;module.vpc.aws_route_table.public</title>
<path fill="none" stroke="black" d="M797.22,-340.47C755.51,-335.48 709.67,-330 671.2,-325.41"/>
<polygon fill="black" stroke="black" points="671.88,-321.96 661.54,-324.25 671.05,-328.91 671.88,-321.96"/>
</g>
<!-- module.vpc.aws_route_table_association.public_a&#45;&gt;module.vpc.aws_subnet.public_a -->
<g id="edge24" class="edge">
<title>module.vpc.aws_route_table_association.public_a&#45;&gt;module.vpc.aws_subnet.public_a</title>
<path fill="none" stroke="black" d="M797.22,-360.04C753.47,-361.87 705.17,-363.89 665.6,-365.55"/>
<polygon fill="black" stroke="black" points="665.51,-362.05 655.66,-365.96 665.8,-369.04 665.51,-362.05"/>
</g>
<!-- module.vpc.aws_route_table_association.public_c -->
<g id="node29" class="node">
<title>module.vpc.aws_route_table_association.public_c</title>
<polygon fill="none" stroke="black" points="1041.12,-291.97 797.88,-291.97 797.88,-255.97 1041.12,-255.97 1041.12,-291.97"/>
<text text-anchor="middle" x="919.5" y="-268.17" font-family="sans-serif" font-size="14.00">aws_route_table_association.public_c</text>
</g>
<!-- module.vpc.aws_route_table_association.public_c&#45;&gt;module.vpc.aws_route_table.public -->
<g id="edge25" class="edge">
<title>module.vpc.aws_route_table_association.public_c&#45;&gt;module.vpc.aws_route_table.public</title>
<path fill="none" stroke="black" d="M797.69,-288.77C755.95,-293.88 710.01,-299.51 671.44,-304.24"/>
<polygon fill="black" stroke="black" points="671.25,-300.73 661.75,-305.42 672.11,-307.68 671.25,-300.73"/>
</g>
<!-- module.vpc.aws_route_table_association.public_c&#45;&gt;module.vpc.aws_subnet.public_c -->
<g id="edge26" class="edge">
<title>module.vpc.aws_route_table_association.public_c&#45;&gt;module.vpc.aws_subnet.public_c</title>
<path fill="none" stroke="black" d="M797.69,-269.27C753.73,-267.57 705.12,-265.68 665.37,-264.13"/>
<polygon fill="black" stroke="black" points="665.51,-260.64 655.38,-263.74 665.24,-267.63 665.51,-260.64"/>
</g>
<!-- module.vpc.aws_subnet.private_a&#45;&gt;module.vpc.aws_vpc.main -->
<g id="edge27" class="edge">
<title>module.vpc.aws_subnet.private_a&#45;&gt;module.vpc.aws_vpc.main</title>
<path fill="none" stroke="black" d="M187.13,-232.29C174.67,-236.09 162.28,-241.18 151.5,-247.97 122.51,-266.23 98.76,-297.99 84.12,-321.03"/>
<polygon fill="black" stroke="black" points="81.28,-318.97 79.03,-329.32 87.25,-322.63 81.28,-318.97"/>
</g>
<!-- module.vpc.aws_subnet.private_c&#45;&gt;module.vpc.aws_vpc.main -->
<g id="edge28" class="edge">
<title>module.vpc.aws_subnet.private_c&#45;&gt;module.vpc.aws_vpc.main</title>
<path fill="none" stroke="black" d="M190.58,-293.43C177.45,-297.48 163.95,-302.05 151.5,-306.97 138.06,-312.28 123.87,-318.99 111.08,-325.47"/>
<polygon fill="black" stroke="black" points="109.79,-322.2 102.51,-329.9 113,-328.42 109.79,-322.2"/>
</g>
<!-- module.vpc.aws_subnet.public_a&#45;&gt;module.vpc.aws_vpc.main -->
<g id="edge29" class="edge">
<title>module.vpc.aws_subnet.public_a&#45;&gt;module.vpc.aws_vpc.main</title>
<path fill="none" stroke="black" d="M511.66,-377.48C426.03,-386.16 277.17,-395.81 151.5,-375.97 143.54,-374.71 135.31,-372.82 127.26,-370.61"/>
<polygon fill="black" stroke="black" points="128.47,-367.32 117.89,-367.86 126.5,-374.03 128.47,-367.32"/>
</g>
<!-- module.vpc.aws_subnet.public_c&#45;&gt;module.vpc.aws_vpc.main -->
<g id="edge30" class="edge">
<title>module.vpc.aws_subnet.public_c&#45;&gt;module.vpc.aws_vpc.main</title>
<path fill="none" stroke="black" d="M511.98,-267.99C478.96,-272.22 439.21,-278.63 404.25,-287.97 387.66,-292.39 384.96,-298.03 368.25,-301.97 274.09,-324.16 246.26,-302.5 151.5,-321.97 144.19,-323.47 136.62,-325.39 129.16,-327.5"/>
<polygon fill="black" stroke="black" points="128.38,-324.08 119.8,-330.29 130.38,-330.79 128.38,-324.08"/>
</g>
</g>
</svg>
