<?xml version="1.0" encoding="UTF-8" standalone="no"?>
<!DOCTYPE svg PUBLIC "-//W3C//DTD SVG 1.1//EN"
 "http://www.w3.org/Graphics/SVG/1.1/DTD/svg11.dtd">
<!-- Generated by graphviz version 12.2.1 (20241206.2353)
 -->
<!-- Title: G Pages: 1 -->
<svg width="2041pt" height="1013pt"
 viewBox="0.00 0.00 2040.75 1013.00" xmlns="http://www.w3.org/2000/svg" xmlns:xlink="http://www.w3.org/1999/xlink">
<g id="graph0" class="graph" transform="scale(1 1) rotate(0) translate(4 1009)">
<title>G</title>
<polygon fill="white" stroke="none" points="-4,4 -4,-1009 2036.75,-1009 2036.75,4 -4,4"/>
<g id="clust1" class="cluster">
<title>cluster_module.alb</title>
<polygon fill="none" stroke="black" points="378.25,-868 378.25,-997 1119.88,-997 1119.88,-868 378.25,-868"/>
<text text-anchor="middle" x="749.06" y="-979.7" font-family="sans-serif" font-size="14.00">module.alb</text>
</g>
<g id="clust2" class="cluster">
<title>cluster_module.asg</title>
<polygon fill="none" stroke="black" points="629,-91 629,-274 2024.75,-274 2024.75,-91 629,-91"/>
<text text-anchor="middle" x="1326.88" y="-256.7" font-family="sans-serif" font-size="14.00">module.asg</text>
</g>
<g id="clust3" class="cluster">
<title>cluster_module.bastion</title>
<polygon fill="none" stroke="black" points="365.5,-365 365.5,-440 795.25,-440 795.25,-365 365.5,-365"/>
<text text-anchor="middle" x="580.38" y="-422.7" font-family="sans-serif" font-size="14.00">module.bastion</text>
</g>
<g id="clust4" class="cluster">
<title>cluster_module.ecr</title>
<polygon fill="none" stroke="black" points="957,-8 957,-83 1131.5,-83 1131.5,-8 957,-8"/>
<text text-anchor="middle" x="1044.25" y="-65.7" font-family="sans-serif" font-size="14.00">module.ecr</text>
</g>
<g id="clust5" class="cluster">
<title>cluster_module.monitoring</title>
<polygon fill="none" stroke="black" points="605,-282 605,-357 1134.88,-357 1134.88,-282 605,-282"/>
<text text-anchor="middle" x="869.94" y="-339.7" font-family="sans-serif" font-size="14.00">module.monitoring</text>
</g>
<g id="clust6" class="cluster">
<title>cluster_module.nat</title>
<polygon fill="none" stroke="black" points="413.12,-554 413.12,-629 1508.25,-629 1508.25,-554 413.12,-554"/>
<text text-anchor="middle" x="960.69" y="-611.7" font-family="sans-serif" font-size="14.00">module.nat</text>
</g>
<g id="clust7" class="cluster">
<title>cluster_module.vpc</title>
<polygon fill="none" stroke="black" points="8,-637 8,-860 844.75,-860 844.75,-637 8,-637"/>
<text text-anchor="middle" x="426.38" y="-842.7" font-family="sans-serif" font-size="14.00">module.vpc</text>
</g>
<!-- module.alb.aws_lb.main -->
<g id="node1" class="node">
<title>module.alb.aws_lb.main</title>
<polygon fill="none" stroke="black" points="760.62,-966 668.88,-966 668.88,-930 760.62,-930 760.62,-966"/>
<text text-anchor="middle" x="714.75" y="-942.2" font-family="sans-serif" font-size="14.00">aws_lb.main</text>
</g>
<!-- module.alb.aws_security_group.alb -->
<g id="node4" class="node">
<title>module.alb.aws_security_group.alb</title>
<polygon fill="none" stroke="black" points="544,-952 386.25,-952 386.25,-916 544,-916 544,-952"/>
<text text-anchor="middle" x="465.12" y="-928.2" font-family="sans-serif" font-size="14.00">aws_security_group.alb</text>
</g>
<!-- module.alb.aws_lb.main&#45;&gt;module.alb.aws_security_group.alb -->
<g id="edge1" class="edge">
<title>module.alb.aws_lb.main&#45;&gt;module.alb.aws_security_group.alb</title>
<path fill="none" stroke="black" d="M668.62,-945.45C637.01,-943.66 593.7,-941.21 555.26,-939.04"/>
<polygon fill="black" stroke="black" points="555.72,-935.56 545.54,-938.49 555.33,-942.55 555.72,-935.56"/>
</g>
<!-- module.vpc.aws_subnet.public_a -->
<g id="node28" class="node">
<title>module.vpc.aws_subnet.public_a</title>
<polygon fill="none" stroke="black" points="536.12,-721 394.12,-721 394.12,-685 536.12,-685 536.12,-721"/>
<text text-anchor="middle" x="465.12" y="-697.2" font-family="sans-serif" font-size="14.00">aws_subnet.public_a</text>
</g>
<!-- module.alb.aws_lb.main&#45;&gt;module.vpc.aws_subnet.public_a -->
<g id="edge2" class="edge">
<title>module.alb.aws_lb.main&#45;&gt;module.vpc.aws_subnet.public_a</title>
<path fill="none" stroke="black" d="M668.51,-949.41C642.86,-947.71 612.13,-941.03 592.75,-921 532.69,-858.91 614.6,-794.15 556.75,-730 553.68,-726.6 550.21,-723.62 546.45,-721.01"/>
<polygon fill="black" stroke="black" points="548.31,-718.04 537.91,-716.01 544.78,-724.08 548.31,-718.04"/>
</g>
<!-- module.vpc.aws_subnet.public_c -->
<g id="node29" class="node">
<title>module.vpc.aws_subnet.public_c</title>
<polygon fill="none" stroke="black" points="535.75,-775 394.5,-775 394.5,-739 535.75,-739 535.75,-775"/>
<text text-anchor="middle" x="465.12" y="-751.2" font-family="sans-serif" font-size="14.00">aws_subnet.public_c</text>
</g>
<!-- module.alb.aws_lb.main&#45;&gt;module.vpc.aws_subnet.public_c -->
<g id="edge3" class="edge">
<title>module.alb.aws_lb.main&#45;&gt;module.vpc.aws_subnet.public_c</title>
<path fill="none" stroke="black" d="M668.43,-948.86C643.08,-946.92 612.67,-940.19 592.75,-921 547.41,-877.32 600.54,-829.24 556.75,-784 553.57,-780.71 550,-777.82 546.17,-775.27"/>
<polygon fill="black" stroke="black" points="547.94,-772.25 537.51,-770.38 544.5,-778.35 547.94,-772.25"/>
</g>
<!-- module.alb.aws_lb_listener.http -->
<g id="node2" class="node">
<title>module.alb.aws_lb_listener.http</title>
<polygon fill="none" stroke="black" points="1111.88,-939 976.62,-939 976.62,-903 1111.88,-903 1111.88,-939"/>
<text text-anchor="middle" x="1044.25" y="-915.2" font-family="sans-serif" font-size="14.00">aws_lb_listener.http</text>
</g>
<!-- module.alb.aws_lb_listener.http&#45;&gt;module.alb.aws_lb.main -->
<g id="edge4" class="edge">
<title>module.alb.aws_lb_listener.http&#45;&gt;module.alb.aws_lb.main</title>
<path fill="none" stroke="black" d="M976.19,-926.53C915.96,-931.49 828.55,-938.7 771.92,-943.37"/>
<polygon fill="black" stroke="black" points="771.86,-939.86 762.18,-944.17 772.44,-946.84 771.86,-939.86"/>
</g>
<!-- module.alb.aws_lb_target_group.backend -->
<g id="node3" class="node">
<title>module.alb.aws_lb_target_group.backend</title>
<polygon fill="none" stroke="black" points="813.12,-912 616.38,-912 616.38,-876 813.12,-876 813.12,-912"/>
<text text-anchor="middle" x="714.75" y="-888.2" font-family="sans-serif" font-size="14.00">aws_lb_target_group.backend</text>
</g>
<!-- module.alb.aws_lb_listener.http&#45;&gt;module.alb.aws_lb_target_group.backend -->
<g id="edge5" class="edge">
<title>module.alb.aws_lb_listener.http&#45;&gt;module.alb.aws_lb_target_group.backend</title>
<path fill="none" stroke="black" d="M976.19,-915.47C932.6,-911.88 874.79,-907.11 824.7,-902.98"/>
<polygon fill="black" stroke="black" points="825.24,-899.51 814.99,-902.18 824.67,-906.49 825.24,-899.51"/>
</g>
<!-- module.vpc.aws_vpc.main -->
<g id="node30" class="node">
<title>module.vpc.aws_vpc.main</title>
<polygon fill="none" stroke="black" points="118.25,-782 16,-782 16,-746 118.25,-746 118.25,-782"/>
<text text-anchor="middle" x="67.12" y="-758.2" font-family="sans-serif" font-size="14.00">aws_vpc.main</text>
</g>
<!-- module.alb.aws_lb_target_group.backend&#45;&gt;module.vpc.aws_vpc.main -->
<g id="edge6" class="edge">
<title>module.alb.aws_lb_target_group.backend&#45;&gt;module.vpc.aws_vpc.main</title>
<path fill="none" stroke="black" d="M616.1,-901.52C500.87,-906.56 305.78,-902.92 154.25,-838 129.56,-827.42 106.76,-807.14 90.82,-790.48"/>
<polygon fill="black" stroke="black" points="93.53,-788.25 84.17,-783.29 88.39,-793.01 93.53,-788.25"/>
</g>
<!-- module.alb.aws_security_group.alb&#45;&gt;module.vpc.aws_vpc.main -->
<g id="edge7" class="edge">
<title>module.alb.aws_security_group.alb&#45;&gt;module.vpc.aws_vpc.main</title>
<path fill="none" stroke="black" d="M386.02,-939.36C319.58,-940.21 224.09,-932.39 154.25,-889 117.92,-866.43 93.05,-822.25 79.7,-792.93"/>
<polygon fill="black" stroke="black" points="82.96,-791.64 75.75,-783.88 76.54,-794.44 82.96,-791.64"/>
</g>
<!-- module.asg.aws_autoscaling_group.backend -->
<g id="node5" class="node">
<title>module.asg.aws_autoscaling_group.backend</title>
<polygon fill="none" stroke="black" points="1748.75,-243 1536.25,-243 1536.25,-207 1748.75,-207 1748.75,-243"/>
<text text-anchor="middle" x="1642.5" y="-219.2" font-family="sans-serif" font-size="14.00">aws_autoscaling_group.backend</text>
</g>
<!-- module.asg.aws_autoscaling_group.backend&#45;&gt;module.alb.aws_lb_target_group.backend -->
<g id="edge8" class="edge">
<title>module.asg.aws_autoscaling_group.backend&#45;&gt;module.alb.aws_lb_target_group.backend</title>
<path fill="none" stroke="black" d="M1641.01,-243.35C1638.33,-306.63 1620.95,-518.09 1508.25,-633 1321.84,-823.05 994.65,-874.74 824.88,-888.78"/>
<polygon fill="black" stroke="black" points="824.63,-885.29 814.94,-889.57 825.18,-892.27 824.63,-885.29"/>
</g>
<!-- module.asg.aws_launch_template.backend -->
<g id="node11" class="node">
<title>module.asg.aws_launch_template.backend</title>
<polygon fill="none" stroke="black" points="1477,-243 1275,-243 1275,-207 1477,-207 1477,-243"/>
<text text-anchor="middle" x="1376" y="-219.2" font-family="sans-serif" font-size="14.00">aws_launch_template.backend</text>
</g>
<!-- module.asg.aws_autoscaling_group.backend&#45;&gt;module.asg.aws_launch_template.backend -->
<g id="edge9" class="edge">
<title>module.asg.aws_autoscaling_group.backend&#45;&gt;module.asg.aws_launch_template.backend</title>
<path fill="none" stroke="black" d="M1535.82,-225C1520.31,-225 1504.28,-225 1488.65,-225"/>
<polygon fill="black" stroke="black" points="1488.86,-221.5 1478.86,-225 1488.86,-228.5 1488.86,-221.5"/>
</g>
<!-- module.vpc.aws_subnet.private_a -->
<g id="node26" class="node">
<title>module.vpc.aws_subnet.private_a</title>
<polygon fill="none" stroke="black" points="319.5,-735 172.25,-735 172.25,-699 319.5,-699 319.5,-735"/>
<text text-anchor="middle" x="245.88" y="-711.2" font-family="sans-serif" font-size="14.00">aws_subnet.private_a</text>
</g>
<!-- module.asg.aws_autoscaling_group.backend&#45;&gt;module.vpc.aws_subnet.private_a -->
<g id="edge10" class="edge">
<title>module.asg.aws_autoscaling_group.backend&#45;&gt;module.vpc.aws_subnet.private_a</title>
<path fill="none" stroke="black" d="M1619.59,-243.41C1544.71,-304.41 1290,-496 1045.25,-496 1045.25,-496 1045.25,-496 713.75,-496 557.12,-496 478.64,-441.69 365.5,-550 319.66,-593.88 380.25,-643.11 337.5,-690 335.09,-692.64 332.43,-695.03 329.59,-697.19"/>
<polygon fill="black" stroke="black" points="327.77,-694.2 321.22,-702.52 331.53,-700.1 327.77,-694.2"/>
</g>
<!-- module.asg.aws_autoscaling_policy.scale_down -->
<g id="node6" class="node">
<title>module.asg.aws_autoscaling_policy.scale_down</title>
<polygon fill="none" stroke="black" points="2016.75,-189 1784.75,-189 1784.75,-153 2016.75,-153 2016.75,-189"/>
<text text-anchor="middle" x="1900.75" y="-165.2" font-family="sans-serif" font-size="14.00">aws_autoscaling_policy.scale_down</text>
</g>
<!-- module.asg.aws_autoscaling_policy.scale_down&#45;&gt;module.asg.aws_autoscaling_group.backend -->
<g id="edge11" class="edge">
<title>module.asg.aws_autoscaling_policy.scale_down&#45;&gt;module.asg.aws_autoscaling_group.backend</title>
<path fill="none" stroke="black" d="M1812.28,-189.43C1789.73,-194.19 1765.3,-199.33 1742.22,-204.2"/>
<polygon fill="black" stroke="black" points="1741.55,-200.76 1732.49,-206.25 1743,-207.61 1741.55,-200.76"/>
</g>
<!-- module.asg.aws_autoscaling_policy.scale_up -->
<g id="node7" class="node">
<title>module.asg.aws_autoscaling_policy.scale_up</title>
<polygon fill="none" stroke="black" points="2008.12,-243 1793.38,-243 1793.38,-207 2008.12,-207 2008.12,-243"/>
<text text-anchor="middle" x="1900.75" y="-219.2" font-family="sans-serif" font-size="14.00">aws_autoscaling_policy.scale_up</text>
</g>
<!-- module.asg.aws_autoscaling_policy.scale_up&#45;&gt;module.asg.aws_autoscaling_group.backend -->
<g id="edge12" class="edge">
<title>module.asg.aws_autoscaling_policy.scale_up&#45;&gt;module.asg.aws_autoscaling_group.backend</title>
<path fill="none" stroke="black" d="M1792.93,-225C1782.13,-225 1771.12,-225 1760.22,-225"/>
<polygon fill="black" stroke="black" points="1760.42,-221.5 1750.42,-225 1760.42,-228.5 1760.42,-221.5"/>
</g>
<!-- module.asg.aws_iam_instance_profile.ec2_profile -->
<g id="node8" class="node">
<title>module.asg.aws_iam_instance_profile.ec2_profile</title>
<polygon fill="none" stroke="black" points="1165.12,-243 923.38,-243 923.38,-207 1165.12,-207 1165.12,-243"/>
<text text-anchor="middle" x="1044.25" y="-219.2" font-family="sans-serif" font-size="14.00">aws_iam_instance_profile.ec2_profile</text>
</g>
<!-- module.asg.aws_iam_role.ec2_role -->
<g id="node9" class="node">
<title>module.asg.aws_iam_role.ec2_role</title>
<polygon fill="none" stroke="black" points="792.5,-216 637,-216 637,-180 792.5,-180 792.5,-216"/>
<text text-anchor="middle" x="714.75" y="-192.2" font-family="sans-serif" font-size="14.00">aws_iam_role.ec2_role</text>
</g>
<!-- module.asg.aws_iam_instance_profile.ec2_profile&#45;&gt;module.asg.aws_iam_role.ec2_role -->
<g id="edge13" class="edge">
<title>module.asg.aws_iam_instance_profile.ec2_profile&#45;&gt;module.asg.aws_iam_role.ec2_role</title>
<path fill="none" stroke="black" d="M923.16,-215.1C883.62,-211.84 840.42,-208.28 803.72,-205.25"/>
<polygon fill="black" stroke="black" points="804.32,-201.79 794.07,-204.46 803.74,-208.77 804.32,-201.79"/>
</g>
<!-- module.asg.aws_iam_role_policy_attachment.ecr_readonly_attach -->
<g id="node10" class="node">
<title>module.asg.aws_iam_role_policy_attachment.ecr_readonly_attach</title>
<polygon fill="none" stroke="black" points="1215.75,-189 872.75,-189 872.75,-153 1215.75,-153 1215.75,-189"/>
<text text-anchor="middle" x="1044.25" y="-165.2" font-family="sans-serif" font-size="14.00">aws_iam_role_policy_attachment.ecr_readonly_attach</text>
</g>
<!-- module.asg.aws_iam_role_policy_attachment.ecr_readonly_attach&#45;&gt;module.asg.aws_iam_role.ec2_role -->
<g id="edge14" class="edge">
<title>module.asg.aws_iam_role_policy_attachment.ecr_readonly_attach&#45;&gt;module.asg.aws_iam_role.ec2_role</title>
<path fill="none" stroke="black" d="M872.31,-185.09C848.64,-187.04 825.18,-188.98 803.9,-190.73"/>
<polygon fill="black" stroke="black" points="803.83,-187.23 794.16,-191.54 804.41,-194.2 803.83,-187.23"/>
</g>
<!-- module.asg.aws_launch_template.backend&#45;&gt;module.asg.aws_iam_instance_profile.ec2_profile -->
<g id="edge15" class="edge">
<title>module.asg.aws_launch_template.backend&#45;&gt;module.asg.aws_iam_instance_profile.ec2_profile</title>
<path fill="none" stroke="black" d="M1274.72,-225C1243.87,-225 1209.44,-225 1176.82,-225"/>
<polygon fill="black" stroke="black" points="1176.88,-221.5 1166.88,-225 1176.88,-228.5 1176.88,-221.5"/>
</g>
<!-- module.asg.aws_security_group.backend -->
<g id="node12" class="node">
<title>module.asg.aws_security_group.backend</title>
<polygon fill="none" stroke="black" points="1139.62,-135 948.88,-135 948.88,-99 1139.62,-99 1139.62,-135"/>
<text text-anchor="middle" x="1044.25" y="-111.2" font-family="sans-serif" font-size="14.00">aws_security_group.backend</text>
</g>
<!-- module.asg.aws_launch_template.backend&#45;&gt;module.asg.aws_security_group.backend -->
<g id="edge16" class="edge">
<title>module.asg.aws_launch_template.backend&#45;&gt;module.asg.aws_security_group.backend</title>
<path fill="none" stroke="black" d="M1345.69,-206.53C1314.62,-187.83 1263.55,-159.51 1215.75,-144 1195.24,-137.34 1172.79,-132.3 1151.11,-128.48"/>
<polygon fill="black" stroke="black" points="1151.79,-125.04 1141.35,-126.84 1150.63,-131.95 1151.79,-125.04"/>
</g>
<!-- module.ecr.aws_ecr_repository.app -->
<g id="node15" class="node">
<title>module.ecr.aws_ecr_repository.app</title>
<polygon fill="none" stroke="black" points="1123.5,-52 965,-52 965,-16 1123.5,-16 1123.5,-52"/>
<text text-anchor="middle" x="1044.25" y="-28.2" font-family="sans-serif" font-size="14.00">aws_ecr_repository.app</text>
</g>
<!-- module.asg.aws_launch_template.backend&#45;&gt;module.ecr.aws_ecr_repository.app -->
<g id="edge17" class="edge">
<title>module.asg.aws_launch_template.backend&#45;&gt;module.ecr.aws_ecr_repository.app</title>
<path fill="none" stroke="black" d="M1358.69,-206.64C1331.72,-177.32 1274.89,-119.9 1215.75,-87 1190.87,-73.16 1161.9,-62.43 1134.97,-54.36"/>
<polygon fill="black" stroke="black" points="1136,-51.01 1125.43,-51.59 1134.06,-57.73 1136,-51.01"/>
</g>
<!-- module.monitoring.aws_instance.monitoring -->
<g id="node16" class="node">
<title>module.monitoring.aws_instance.monitoring</title>
<polygon fill="none" stroke="black" points="1126.88,-326 961.62,-326 961.62,-290 1126.88,-290 1126.88,-326"/>
<text text-anchor="middle" x="1044.25" y="-302.2" font-family="sans-serif" font-size="14.00">aws_instance.monitoring</text>
</g>
<!-- module.asg.aws_launch_template.backend&#45;&gt;module.monitoring.aws_instance.monitoring -->
<g id="edge18" class="edge">
<title>module.asg.aws_launch_template.backend&#45;&gt;module.monitoring.aws_instance.monitoring</title>
<path fill="none" stroke="black" d="M1325.71,-243.49C1294.53,-254.67 1253.18,-268.53 1215.75,-278 1190.88,-284.29 1163.63,-289.72 1138.36,-294.17"/>
<polygon fill="black" stroke="black" points="1138.04,-290.67 1128.78,-295.82 1139.23,-297.57 1138.04,-290.67"/>
</g>
<!-- module.bastion.aws_security_group.bastion -->
<g id="node14" class="node">
<title>module.bastion.aws_security_group.bastion</title>
<polygon fill="none" stroke="black" points="556.75,-409 373.5,-409 373.5,-373 556.75,-373 556.75,-409"/>
<text text-anchor="middle" x="465.12" y="-385.2" font-family="sans-serif" font-size="14.00">aws_security_group.bastion</text>
</g>
<!-- module.asg.aws_security_group.backend&#45;&gt;module.bastion.aws_security_group.bastion -->
<g id="edge19" class="edge">
<title>module.asg.aws_security_group.backend&#45;&gt;module.bastion.aws_security_group.bastion</title>
<path fill="none" stroke="black" d="M948.7,-105.04C851.34,-97.71 699.22,-100.65 592.75,-171 523.97,-216.45 488.09,-312.96 473.76,-361.63"/>
<polygon fill="black" stroke="black" points="470.41,-360.61 471.06,-371.18 477.15,-362.51 470.41,-360.61"/>
</g>
<!-- module.bastion.aws_instance.bastion -->
<g id="node13" class="node">
<title>module.bastion.aws_instance.bastion</title>
<polygon fill="none" stroke="black" points="787.25,-409 642.25,-409 642.25,-373 787.25,-373 787.25,-409"/>
<text text-anchor="middle" x="714.75" y="-385.2" font-family="sans-serif" font-size="14.00">aws_instance.bastion</text>
</g>
<!-- module.bastion.aws_instance.bastion&#45;&gt;module.bastion.aws_security_group.bastion -->
<g id="edge20" class="edge">
<title>module.bastion.aws_instance.bastion&#45;&gt;module.bastion.aws_security_group.bastion</title>
<path fill="none" stroke="black" d="M641.79,-391C618.89,-391 593.09,-391 568.46,-391"/>
<polygon fill="black" stroke="black" points="568.75,-387.5 558.75,-391 568.75,-394.5 568.75,-387.5"/>
</g>
<!-- module.bastion.aws_instance.bastion&#45;&gt;module.vpc.aws_subnet.public_a -->
<g id="edge21" class="edge">
<title>module.bastion.aws_instance.bastion&#45;&gt;module.vpc.aws_subnet.public_a</title>
<path fill="none" stroke="black" d="M697.67,-409.05C672.88,-437.51 624.83,-495.23 592.75,-550 572.43,-584.7 581.44,-601.26 556.75,-633 543.05,-650.61 523.95,-666.23 506.81,-678.22"/>
<polygon fill="black" stroke="black" points="505.11,-675.15 498.79,-683.65 509.04,-680.94 505.11,-675.15"/>
</g>
<!-- module.bastion.aws_instance.bastion&#45;&gt;module.vpc.aws_subnet.public_c -->
<g id="edge22" class="edge">
<title>module.bastion.aws_instance.bastion&#45;&gt;module.vpc.aws_subnet.public_c</title>
<path fill="none" stroke="black" d="M695.33,-409.21C668.37,-436.99 618.58,-492.77 592.75,-550 559.19,-624.36 611.72,-669.72 556.75,-730 553.51,-733.55 549.84,-736.64 545.86,-739.33"/>
<polygon fill="black" stroke="black" points="544.35,-736.16 537.41,-744.16 547.83,-742.23 544.35,-736.16"/>
</g>
<!-- module.bastion.aws_security_group.bastion&#45;&gt;module.vpc.aws_vpc.main -->
<g id="edge23" class="edge">
<title>module.bastion.aws_security_group.bastion&#45;&gt;module.vpc.aws_vpc.main</title>
<path fill="none" stroke="black" d="M424.9,-409.3C406.27,-418.67 384.07,-430.87 365.5,-444 261.9,-517.24 237.21,-540.01 154.25,-636 126.61,-667.99 100.31,-709.19 84.21,-736.08"/>
<polygon fill="black" stroke="black" points="81.41,-733.95 79.33,-744.34 87.43,-737.51 81.41,-733.95"/>
</g>
<!-- module.monitoring.aws_security_group.monitoring -->
<g id="node17" class="node">
<title>module.monitoring.aws_security_group.monitoring</title>
<polygon fill="none" stroke="black" points="816.5,-326 613,-326 613,-290 816.5,-290 816.5,-326"/>
<text text-anchor="middle" x="714.75" y="-302.2" font-family="sans-serif" font-size="14.00">aws_security_group.monitoring</text>
</g>
<!-- module.monitoring.aws_instance.monitoring&#45;&gt;module.monitoring.aws_security_group.monitoring -->
<g id="edge24" class="edge">
<title>module.monitoring.aws_instance.monitoring&#45;&gt;module.monitoring.aws_security_group.monitoring</title>
<path fill="none" stroke="black" d="M961.45,-308C921.19,-308 872.03,-308 828.28,-308"/>
<polygon fill="black" stroke="black" points="828.51,-304.5 818.51,-308 828.51,-311.5 828.51,-304.5"/>
</g>
<!-- module.vpc.aws_subnet.private_c -->
<g id="node27" class="node">
<title>module.vpc.aws_subnet.private_c</title>
<polygon fill="none" stroke="black" points="319.12,-681 172.62,-681 172.62,-645 319.12,-645 319.12,-681"/>
<text text-anchor="middle" x="245.88" y="-657.2" font-family="sans-serif" font-size="14.00">aws_subnet.private_c</text>
</g>
<!-- module.monitoring.aws_instance.monitoring&#45;&gt;module.vpc.aws_subnet.private_c -->
<g id="edge25" class="edge">
<title>module.monitoring.aws_instance.monitoring&#45;&gt;module.vpc.aws_subnet.private_c</title>
<path fill="none" stroke="black" d="M1024.08,-326.39C990.75,-357.07 918.6,-417.89 844.75,-444 744.03,-479.62 449.87,-416.46 365.5,-482 335.09,-505.62 357.14,-530.87 337.5,-564 321.14,-591.59 296.18,-618.13 276.59,-636.77"/>
<polygon fill="black" stroke="black" points="274.33,-634.1 269.4,-643.47 279.1,-639.22 274.33,-634.1"/>
</g>
<!-- module.monitoring.aws_security_group.monitoring&#45;&gt;module.bastion.aws_security_group.bastion -->
<g id="edge26" class="edge">
<title>module.monitoring.aws_security_group.monitoring&#45;&gt;module.bastion.aws_security_group.bastion</title>
<path fill="none" stroke="black" d="M658.79,-326.42C621.28,-338.99 571.41,-355.71 531.81,-368.98"/>
<polygon fill="black" stroke="black" points="530.73,-365.65 522.36,-372.15 532.96,-372.29 530.73,-365.65"/>
</g>
<!-- module.nat.aws_eip.nat -->
<g id="node18" class="node">
<title>module.nat.aws_eip.nat</title>
<polygon fill="none" stroke="black" points="509.12,-598 421.12,-598 421.12,-562 509.12,-562 509.12,-598"/>
<text text-anchor="middle" x="465.12" y="-574.2" font-family="sans-serif" font-size="14.00">aws_eip.nat</text>
</g>
<!-- module.nat.aws_nat_gateway.main -->
<g id="node19" class="node">
<title>module.nat.aws_nat_gateway.main</title>
<polygon fill="none" stroke="black" points="793.25,-598 636.25,-598 636.25,-562 793.25,-562 793.25,-598"/>
<text text-anchor="middle" x="714.75" y="-574.2" font-family="sans-serif" font-size="14.00">aws_nat_gateway.main</text>
</g>
<!-- module.nat.aws_nat_gateway.main&#45;&gt;module.nat.aws_eip.nat -->
<g id="edge27" class="edge">
<title>module.nat.aws_nat_gateway.main&#45;&gt;module.nat.aws_eip.nat</title>
<path fill="none" stroke="black" d="M636.08,-580C598.49,-580 554.27,-580 520.37,-580"/>
<polygon fill="black" stroke="black" points="520.8,-576.5 510.8,-580 520.8,-583.5 520.8,-576.5"/>
</g>
<!-- module.nat.aws_nat_gateway.main&#45;&gt;module.vpc.aws_subnet.public_a -->
<g id="edge28" class="edge">
<title>module.nat.aws_nat_gateway.main&#45;&gt;module.vpc.aws_subnet.public_a</title>
<path fill="none" stroke="black" d="M669.05,-598.42C646.02,-608.19 617.63,-620.71 592.75,-633 563.65,-647.38 531.67,-665.07 507.13,-679.07"/>
<polygon fill="black" stroke="black" points="505.69,-675.87 498.75,-683.88 509.17,-681.94 505.69,-675.87"/>
</g>
<!-- module.nat.aws_nat_gateway.main&#45;&gt;module.vpc.aws_subnet.public_c -->
<g id="edge29" class="edge">
<title>module.nat.aws_nat_gateway.main&#45;&gt;module.vpc.aws_subnet.public_c</title>
<path fill="none" stroke="black" d="M646.23,-598.5C626.94,-606.5 607.23,-617.66 592.75,-633 561.18,-666.44 590.32,-698.57 556.75,-730 553.47,-733.07 549.86,-735.79 546.03,-738.2"/>
<polygon fill="black" stroke="black" points="544.54,-735.02 537.42,-742.86 547.88,-741.18 544.54,-735.02"/>
</g>
<!-- module.nat.aws_route_table.private -->
<g id="node20" class="node">
<title>module.nat.aws_route_table.private</title>
<polygon fill="none" stroke="black" points="1123.88,-598 964.62,-598 964.62,-562 1123.88,-562 1123.88,-598"/>
<text text-anchor="middle" x="1044.25" y="-574.2" font-family="sans-serif" font-size="14.00">aws_route_table.private</text>
</g>
<!-- module.nat.aws_route_table.private&#45;&gt;module.nat.aws_nat_gateway.main -->
<g id="edge30" class="edge">
<title>module.nat.aws_route_table.private&#45;&gt;module.nat.aws_nat_gateway.main</title>
<path fill="none" stroke="black" d="M964.39,-580C916.36,-580 854.87,-580 805.06,-580"/>
<polygon fill="black" stroke="black" points="805.16,-576.5 795.16,-580 805.16,-583.5 805.16,-576.5"/>
</g>
<!-- module.nat.aws_route_table_association.private_c -->
<g id="node21" class="node">
<title>module.nat.aws_route_table_association.private_c</title>
<polygon fill="none" stroke="black" points="1500.25,-598 1251.75,-598 1251.75,-562 1500.25,-562 1500.25,-598"/>
<text text-anchor="middle" x="1376" y="-574.2" font-family="sans-serif" font-size="14.00">aws_route_table_association.private_c</text>
</g>
<!-- module.nat.aws_route_table_association.private_c&#45;&gt;module.nat.aws_route_table.private -->
<g id="edge31" class="edge">
<title>module.nat.aws_route_table_association.private_c&#45;&gt;module.nat.aws_route_table.private</title>
<path fill="none" stroke="black" d="M1251.28,-580C1212.85,-580 1171.25,-580 1135.55,-580"/>
<polygon fill="black" stroke="black" points="1135.69,-576.5 1125.69,-580 1135.69,-583.5 1135.69,-576.5"/>
</g>
<!-- module.nat.aws_route_table_association.private_c&#45;&gt;module.vpc.aws_subnet.private_c -->
<g id="edge32" class="edge">
<title>module.nat.aws_route_table_association.private_c&#45;&gt;module.vpc.aws_subnet.private_c</title>
<path fill="none" stroke="black" d="M1281.86,-561.51C1260.25,-557.98 1237.27,-554.81 1215.75,-553 1027.47,-537.15 541.39,-484 365.5,-553 323.4,-569.52 287.33,-608.77 266.36,-635.63"/>
<polygon fill="black" stroke="black" points="263.76,-633.27 260.5,-643.35 269.34,-637.5 263.76,-633.27"/>
</g>
<!-- module.vpc.aws_internet_gateway.main -->
<g id="node22" class="node">
<title>module.vpc.aws_internet_gateway.main</title>
<polygon fill="none" stroke="black" points="337.5,-829 154.25,-829 154.25,-793 337.5,-793 337.5,-829"/>
<text text-anchor="middle" x="245.88" y="-805.2" font-family="sans-serif" font-size="14.00">aws_internet_gateway.main</text>
</g>
<!-- module.vpc.aws_internet_gateway.main&#45;&gt;module.vpc.aws_vpc.main -->
<g id="edge33" class="edge">
<title>module.vpc.aws_internet_gateway.main&#45;&gt;module.vpc.aws_vpc.main</title>
<path fill="none" stroke="black" d="M175.53,-792.56C160.42,-788.54 144.54,-784.32 129.75,-780.39"/>
<polygon fill="black" stroke="black" points="130.72,-777.02 120.16,-777.84 128.92,-783.79 130.72,-777.02"/>
</g>
<!-- module.vpc.aws_route_table.public -->
<g id="node23" class="node">
<title>module.vpc.aws_route_table.public</title>
<polygon fill="none" stroke="black" points="542.12,-829 388.12,-829 388.12,-793 542.12,-793 542.12,-829"/>
<text text-anchor="middle" x="465.12" y="-805.2" font-family="sans-serif" font-size="14.00">aws_route_table.public</text>
</g>
<!-- module.vpc.aws_route_table.public&#45;&gt;module.vpc.aws_internet_gateway.main -->
<g id="edge34" class="edge">
<title>module.vpc.aws_route_table.public&#45;&gt;module.vpc.aws_internet_gateway.main</title>
<path fill="none" stroke="black" d="M387.84,-811C375.35,-811 362.24,-811 349.26,-811"/>
<polygon fill="black" stroke="black" points="349.4,-807.5 339.4,-811 349.4,-814.5 349.4,-807.5"/>
</g>
<!-- module.vpc.aws_route_table_association.public_a -->
<g id="node24" class="node">
<title>module.vpc.aws_route_table_association.public_a</title>
<polygon fill="none" stroke="black" points="836.75,-734 592.75,-734 592.75,-698 836.75,-698 836.75,-734"/>
<text text-anchor="middle" x="714.75" y="-710.2" font-family="sans-serif" font-size="14.00">aws_route_table_association.public_a</text>
</g>
<!-- module.vpc.aws_route_table_association.public_a&#45;&gt;module.vpc.aws_route_table.public -->
<g id="edge35" class="edge">
<title>module.vpc.aws_route_table_association.public_a&#45;&gt;module.vpc.aws_route_table.public</title>
<path fill="none" stroke="black" d="M672.77,-734.41C634.13,-751.65 578.94,-775.92 556.75,-784 552.02,-785.72 547.13,-787.42 542.18,-789.07"/>
<polygon fill="black" stroke="black" points="541.15,-785.72 532.72,-792.14 543.31,-792.38 541.15,-785.72"/>
</g>
<!-- module.vpc.aws_route_table_association.public_a&#45;&gt;module.vpc.aws_subnet.public_a -->
<g id="edge36" class="edge">
<title>module.vpc.aws_route_table_association.public_a&#45;&gt;module.vpc.aws_subnet.public_a</title>
<path fill="none" stroke="black" d="M592.48,-709.63C577.3,-708.84 562.06,-708.04 547.69,-707.28"/>
<polygon fill="black" stroke="black" points="548.05,-703.8 537.89,-706.77 547.69,-710.79 548.05,-703.8"/>
</g>
<!-- module.vpc.aws_route_table_association.public_c -->
<g id="node25" class="node">
<title>module.vpc.aws_route_table_association.public_c</title>
<polygon fill="none" stroke="black" points="836.38,-815 593.12,-815 593.12,-779 836.38,-779 836.38,-815"/>
<text text-anchor="middle" x="714.75" y="-791.2" font-family="sans-serif" font-size="14.00">aws_route_table_association.public_c</text>
</g>
<!-- module.vpc.aws_route_table_association.public_c&#45;&gt;module.vpc.aws_route_table.public -->
<g id="edge37" class="edge">
<title>module.vpc.aws_route_table_association.public_c&#45;&gt;module.vpc.aws_route_table.public</title>
<path fill="none" stroke="black" d="M592.84,-803.84C579.68,-804.58 566.48,-805.33 553.82,-806.04"/>
<polygon fill="black" stroke="black" points="553.68,-802.54 543.89,-806.6 554.07,-809.53 553.68,-802.54"/>
</g>
<!-- module.vpc.aws_route_table_association.public_c&#45;&gt;module.vpc.aws_subnet.public_c -->
<g id="edge38" class="edge">
<title>module.vpc.aws_route_table_association.public_c&#45;&gt;module.vpc.aws_subnet.public_c</title>
<path fill="none" stroke="black" d="M599.36,-778.52C581.86,-775.69 564.1,-772.83 547.5,-770.15"/>
<polygon fill="black" stroke="black" points="548.14,-766.7 537.71,-768.56 547.02,-773.61 548.14,-766.7"/>
</g>
<!-- module.vpc.aws_subnet.private_a&#45;&gt;module.vpc.aws_vpc.main -->
<g id="edge39" class="edge">
<title>module.vpc.aws_subnet.private_a&#45;&gt;module.vpc.aws_vpc.main</title>
<path fill="none" stroke="black" d="M175.53,-735.44C160.42,-739.46 144.54,-743.68 129.75,-747.61"/>
<polygon fill="black" stroke="black" points="128.92,-744.21 120.16,-750.16 130.72,-750.98 128.92,-744.21"/>
</g>
<!-- module.vpc.aws_subnet.private_c&#45;&gt;module.vpc.aws_vpc.main -->
<g id="edge40" class="edge">
<title>module.vpc.aws_subnet.private_c&#45;&gt;module.vpc.aws_vpc.main</title>
<path fill="none" stroke="black" d="M172.98,-681.32C166.5,-683.89 160.16,-686.77 154.25,-690 131.26,-702.55 108.94,-722 92.78,-737.81"/>
<polygon fill="black" stroke="black" points="90.58,-735.07 86,-744.62 95.53,-740.01 90.58,-735.07"/>
</g>
<!-- module.vpc.aws_subnet.public_a&#45;&gt;module.vpc.aws_vpc.main -->
<g id="edge41" class="edge">
<title>module.vpc.aws_subnet.public_a&#45;&gt;module.vpc.aws_vpc.main</title>
<path fill="none" stroke="black" d="M393.8,-720.42C384.19,-723.33 374.54,-726.54 365.5,-730 352.51,-734.97 350.91,-740.3 337.5,-744 327.65,-746.71 206.34,-755 129.91,-760.02"/>
<polygon fill="black" stroke="black" points="129.77,-756.52 120.02,-760.67 130.23,-763.5 129.77,-756.52"/>
</g>
<!-- module.vpc.aws_subnet.public_c&#45;&gt;module.vpc.aws_vpc.main -->
<g id="edge42" class="edge">
<title>module.vpc.aws_subnet.public_c&#45;&gt;module.vpc.aws_vpc.main</title>
<path fill="none" stroke="black" d="M394.24,-758.24C319.21,-759.56 201.16,-761.65 129.56,-762.91"/>
<polygon fill="black" stroke="black" points="129.94,-759.41 120,-763.08 130.06,-766.41 129.94,-759.41"/>
</g>
</g>
</svg>
